<?xml version="1.0" encoding="UTF-8" standalone="no"?>
<!-- Created with Inkscape (http://www.inkscape.org/) -->

<svg
   width="40"
   height="40"
   viewBox="0 0 40 40"
   version="1.1"
   id="svg1"
   xmlns="http://www.w3.org/2000/svg"
   xmlns:svg="http://www.w3.org/2000/svg">
  <defs
     id="defs1" />
  <g
     id="layer1"
     transform="translate(1.7089844,-0.87890615)">
    <path
       id="path36"
       style="fill:#375fd7;stroke:#62748e;stroke-width:0"
       d="M 38.28928,20.882835 A 19.994593,19.99514 0 0 1 18.294687,40.877976 19.994593,19.99514 0 0 1 -1.6999064,20.882835 19.994593,19.99514 0 0 1 18.294687,0.88769533 19.994593,19.99514 0 0 1 38.28928,20.882835 Z" />
    <path
       style="font-style:italic;font-weight:600;font-size:25.1585px;font-family:'Source Sans 3';-inkscape-font-specification:'Source Sans 3 Semi-Bold Italic';text-align:center;text-anchor:middle;fill:#dbeafe;fill-opacity:1;stroke:#62748e;stroke-width:0"
       d="M 4.0664061,36.443532 10.252614,5.3221393 h 5.329658 l 5.995864,18.0827677 q 0.190345,0.571033 0.475862,1.760689 0.333105,1.142071 0.618622,2.474485 0.333103,1.332415 0.523448,2.426897 h 0.190344 q 0.237933,-2.522069 0.571035,-5.234485 0.333104,-2.760001 0.808967,-5.329657 L 27.574,5.3221393 h 4.948968 L 26.289173,36.443532 H 21.007101 L 15.106409,18.455939 q -0.285517,-0.856552 -0.808964,-2.855173 -0.52345,-1.998622 -0.904139,-3.997243 H 13.20296 q -0.190345,2.474483 -0.571033,5.234484 -0.333104,2.760001 -0.856554,5.329658 L 8.9677883,36.443532 Z"
       id="path35" />
    <path
       style="font-style:italic;font-weight:600;font-size:25.1585px;font-family:'Source Sans 3';-inkscape-font-specification:'Source Sans 3 Semi-Bold Italic';text-align:center;text-anchor:middle;fill:#0f172a;fill-opacity:1;stroke:#62748e;stroke-width:0"
       d="M 5.1793218,37.747726 11.365531,6.6263322 h 5.329657 l 5.995864,18.0827688 q 0.190345,0.571033 0.475863,1.760689 0.333104,1.142071 0.618621,2.474484 0.333103,1.332416 0.523447,2.426897 h 0.190346 q 0.237931,-2.522069 0.571034,-5.234484 0.333104,-2.760002 0.808968,-5.329657 L 28.686919,6.6263322 h 4.948966 L 27.402089,37.747726 H 22.120018 L 16.219326,19.760133 Q 15.933809,18.903581 15.410359,16.90496 14.886912,14.906339 14.506223,12.907717 h -0.190346 q -0.190345,2.474483 -0.571035,5.234484 -0.333105,2.760001 -0.856552,5.329657 l -2.807589,14.275868 z"
       id="text34" />
  </g>
</svg>
