<?xml version="1.0" encoding="UTF-8" standalone="no"?>
<!-- Generator: Adobe Illustrator 27.1.1, SVG Export Plug-In . SVG Version: 6.00 Build 0)  -->

<svg
   version="1.1"
   id="Layer_1"
   x="0px"
   y="0px"
   viewBox="0 0 41.5 40"
   xml:space="preserve"
   width="41.5"
   height="40"
   xmlns="http://www.w3.org/2000/svg"
   xmlns:svg="http://www.w3.org/2000/svg"><defs
   id="defs9" />
<style
   type="text/css"
   id="style1">
	.color1{fill:#fff;}
</style>
<g
   id="g9"
   transform="matrix(0.60528164,0,0,0.60528164,-0.90305996,-1.5717208)"
   style="fill:#ff0080;fill-opacity:1">
	<path
   class="color1"
   d="M 24.080251,2.6634343 1.5817208,4.7632972 4.2815444,34.26137 18.980584,32.961455 17.480682,16.9625 l 7.79949,-0.699954 c 7.799491,-0.699954 13.999086,5.499641 14.899027,14.799033 0,0 0,0 0,0 l 14.39906,-1.299915 C 53.17835,13.362737 39.479245,1.2635258 24.080251,2.6634343 Z"
   id="path1"
   style="fill:#ff0080;fill-opacity:1;stroke-width:0.999931" />
	<path
   class="color1"
   d="m 55.578194,38.86107 c 0,9.299393 -5.699629,16.098948 -13.499119,16.098948 H 34.179592 V 38.86107 h -14.69904 v 29.598067 h 22.598523 c 15.398995,0 27.898178,-13.299132 27.898178,-29.598067 0,0 0,0 0,0 z"
   id="path2"
   style="fill:#ff0080;fill-opacity:1;stroke-width:0.999931" />
	
</g>
</svg>
