<?xml version="1.0" encoding="UTF-8" standalone="no"?>
<!-- Created with Inkscape (http://www.inkscape.org/) -->

<svg
   width="38"
   height="48"
   viewBox="0 0 38 48"
   version="1.1"
   id="svg1"
   xml:space="preserve"
   inkscape:version="1.4.2 (f4327f4, 2025-05-13)"
   sodipodi:docname="MDS-logo.svg"
   inkscape:export-filename="..\WebDev(Freelance)\manila-dialectics-society\mds\src\assets\images\MDS-logo.svg"
   inkscape:export-xdpi="96"
   inkscape:export-ydpi="96"
   xmlns:inkscape="http://www.inkscape.org/namespaces/inkscape"
   xmlns:sodipodi="http://sodipodi.sourceforge.net/DTD/sodipodi-0.dtd"
   xmlns="http://www.w3.org/2000/svg"
   xmlns:svg="http://www.w3.org/2000/svg"><sodipodi:namedview
     id="namedview1"
     pagecolor="#ffffff"
     bordercolor="#eeeeee"
     borderopacity="1"
     inkscape:showpageshadow="0"
     inkscape:pageopacity="0"
     inkscape:pagecheckerboard="0"
     inkscape:deskcolor="#000000"
     inkscape:document-units="px"
     inkscape:zoom="12.330175"
     inkscape:cx="19.221139"
     inkscape:cy="23.560088"
     inkscape:window-width="1920"
     inkscape:window-height="1017"
     inkscape:window-x="-8"
     inkscape:window-y="-8"
     inkscape:window-maximized="1"
     inkscape:current-layer="layer1"
     inkscape:export-bgcolor="#dddddd00" /><defs
     id="defs1" /><g
     inkscape:label="Layer 1"
     inkscape:groupmode="layer"
     id="layer1"><path
       style="fill:#fff;stroke-width:1.22372"
       d="m 18.642284,47.930086 c -0.161558,-0.110905 -0.590087,-1.599633 -0.817013,-2.838341 -0.04654,-0.254035 -0.106855,-0.57192 -0.134044,-0.70641 -0.10885,-0.538483 -0.279055,-1.97833 -0.372566,-3.151675 -0.09338,-1.171776 -0.243602,-4.301073 -0.26476,-5.51543 -0.0037,-0.211215 -0.161533,-2.185136 -0.228138,-2.85281 -0.02925,-0.293138 -0.05213,-3.385497 -0.05297,-7.155819 -0.0016,-7.225386 0.01628,-6.773306 -0.308625,-7.804631 -0.160304,-0.508855 -0.288274,-0.779296 -0.528805,-1.117529 -0.14269,-0.200653 -0.1565,-0.245771 -0.08781,-0.286886 0.04482,-0.02684 0.215997,-0.127537 0.380375,-0.223786 0.423588,-0.248029 0.488862,-0.403517 0.488968,-1.164777 7.2e-5,-0.525578 -0.013,-0.616132 -0.09501,-0.658315 -0.137713,-0.07083 -1.633932,-0.125237 -1.876424,-0.06823 -0.117184,0.02755 -0.309315,0.144007 -0.447084,0.271 -0.132877,0.122481 -0.284931,0.225283 -0.337901,0.22845 -0.240952,0.0144 -0.429992,-0.02245 -0.517839,-0.100981 -0.127673,-0.114124 -0.257708,-0.382155 -0.257708,-0.531189 0,-0.188437 0.154714,-0.580373 0.283004,-0.716932 0.115923,-0.123396 0.12165,-0.123811 1.709849,-0.123811 h 1.593536 l -0.002,-0.122261 c -0.0031,-0.19701 -0.214801,-0.992365 -0.321784,-1.209048 -0.02952,-0.05978 -0.106452,-0.243167 -0.170965,-0.407543 -0.364028,-0.92744 -0.378077,-1.002589 -0.229746,-1.228972 0.08214,-0.125355 0.119178,-0.136669 0.393961,-0.120353 l 0.303299,0.01801 0.03429,-0.8694267 c 0.01886,-0.4781851 0.02353,-0.8877672 0.0104,-0.9101821 -0.01316,-0.022419 -0.462611,-0.04075 -0.998805,-0.04075 -1.209731,0 -1.205223,0.00245 -1.180917,-0.6407315 0.02489,-0.6586932 -0.308321,-0.6088854 4.07415,-0.6089858 2.413411,-5.5e-5 3.729016,0.019335 3.826486,0.056389 0.226695,0.086186 0.289623,0.2102409 0.291519,0.5746813 0.0013,0.2556861 -0.02424,0.3653006 -0.110893,0.4754683 l -0.112619,0.1431763 h -0.894358 c -0.668095,0 -0.899656,0.017181 -0.915296,0.067929 -0.0115,0.03736 -0.03423,0.4408273 -0.05048,0.8965975 l -0.02954,0.8286737 h 0.237924 c 0.316529,0 0.398308,0.03746 0.496552,0.22744 0.07451,0.144095 0.07389,0.187835 -0.0062,0.441713 -0.04895,0.154981 -0.175315,0.465177 -0.280819,0.689327 -0.256897,0.545788 -0.387652,0.967342 -0.430862,1.389097 l -0.03583,0.349757 h 1.492361 c 1.477472,0 1.493503,0.0012 1.606891,0.122262 0.354449,0.378378 0.28024,1.137337 -0.126318,1.29191 -0.332232,0.126314 -0.737263,-0.0092 -0.892042,-0.298363 l -0.07369,-0.137706 H 21.67984 20.683747 l 8.32e-4,0.692825 c 4.56e-4,0.381055 0.0188,0.717334 0.04075,0.747287 0.02195,0.02996 0.217204,0.197785 0.433881,0.372955 0.216678,0.175172 0.39396,0.34121 0.39396,0.368973 0,0.02777 -0.143952,0.348986 -0.319893,0.713829 -0.583498,1.209979 -0.518639,0.208151 -0.549534,8.488198 -0.01494,4.004801 -0.04442,7.307919 -0.06549,7.340263 -0.0426,0.06535 -0.208861,2.135818 -0.239645,2.98419 -0.01089,0.298865 -0.0438,1.032445 -0.07324,1.630176 -0.155897,3.165831 -0.161363,3.240045 -0.382249,5.189396 -0.250618,2.211736 -0.473675,3.298857 -0.915076,4.459837 -0.213697,0.562069 -0.256684,0.626953 -0.365762,0.552072 z M 15.603029,35.001294 C 14.727398,34.913456 13.125257,34.563149 12.134797,34.242955 8.3316964,33.013495 5.2246154,30.700679 3.0936568,27.513008 1.4660823,25.078341 0.48645182,22.14845 0.17011582,18.76925 -0.17784728,15.052189 0.57828452,11.041839 2.2249479,7.8708826 4.3294017,3.8183654 7.7053354,1.1627649 11.799283,0.33945342 c 0.577977,-0.11622875 2.018019,-0.2949222 2.376762,-0.2949222 0.343136,0 0.601754,0.10044279 0.691794,0.26868691 0.0715,0.13360677 0.07136,0.51591224 -2.96e-4,0.77390267 -0.07161,0.2578446 -0.248425,0.3662109 -0.99829,0.6118491 -1.733587,0.5678811 -3.287782,1.8159428 -4.4806796,3.5981072 -0.626747,0.9363475 -1.445829,2.7553318 -1.684378,3.7405963 -0.02894,0.119545 -0.0997,0.3885256 -0.157232,0.5977312 -0.187593,0.6821374 -0.420994,1.8847684 -0.532567,2.7441294 -0.260417,2.005787 -0.296652,5.384905 -0.0775,7.227117 0.223918,1.88225 0.352691,2.626902 0.657782,3.803745 0.920131,3.549257 2.7750226,6.383379 5.2370456,8.001772 0.807725,0.530952 2.604605,1.344574 2.969484,1.344574 0.156991,0 0.198759,0.1542 0.258407,0.953976 0.103282,1.384818 0.108311,1.300245 -0.07773,1.30674 -0.08883,0.0031 -0.259307,-0.0042 -0.378853,-0.01617 z m 5.733349,-0.275589 c 6.19e-4,-0.344067 0.09454,-1.550346 0.134631,-1.729104 0.02096,-0.09349 0.09462,-0.125568 0.420582,-0.183145 3.336427,-0.589336 6.319156,-2.598201 8.03138,-5.409127 0.85123,-1.39745 1.367291,-2.878769 1.760548,-5.053547 0.369534,-2.043586 0.420452,-4.653876 0.135675,-6.955421 C 31.731527,14.686827 31.462472,13.265877 31.278348,12.53899 31.126309,11.938775 30.701476,10.632483 30.546106,10.287475 29.974877,9.0190178 29.641114,8.3986392 29.113613,7.6248528 28.186956,6.2655497 27.150963,5.338938 25.900312,4.7508191 24.647965,4.1619035 23.397583,4.1217276 22.495673,4.6414309 21.901259,4.983946 21.250717,5.8335576 21.012223,6.5788271 l -0.06521,0.2037723 h -1.958997 -1.958999 l 0.03718,-0.2852818 c 0.17226,-1.3217998 0.897459,-2.9008955 1.784201,-3.8850329 1.240448,-1.3766928 2.670958,-2.17143888 4.468802,-2.48272587 0.577956,-0.10007567 1.959513,-0.11337749 2.53935,-0.0244499 3.013786,0.46217511 5.845284,2.16613767 8.116306,4.88429847 4.188489,5.0131566 5.123817,12.6792906 2.356896,19.3175936 -0.559806,1.343067 -1.427451,2.855301 -2.338288,4.075441 -1.603707,2.148295 -3.284342,3.54522 -5.756487,4.784726 -0.26508,0.132908 -0.496069,0.241653 -0.513309,0.241653 -0.01724,0 -0.135003,0.04544 -0.261695,0.100981 -1.061367,0.465288 -2.350328,0.856644 -4.034094,1.224837 -0.464043,0.10147 -1.29358,0.23015 -1.752441,0.271838 l -0.339619,0.03085 z"
       id="path2" /></g></svg>
